<svg width="256" height="256" viewBox="0 0 256 256" fill="none" xmlns="http://www.w3.org/2000/svg">
  <rect x="12" y="12" width="232" height="232" rx="56" fill="#0A0F1A"/>
  <rect x="18" y="18" width="220" height="220" rx="50" stroke="#C9A961" stroke-width="6"/>
  <path d="M72 176V80H90L150 154V80H172V176H154L94 102V176H72Z" fill="#F8FAFC"/>
  <path d="M190 130H150V112H212V176H196L193 162C183.5 172.667 170.333 178 153.5 178C136.667 178 122.667 172.5 111.5 161.5C100.5 150.5 95 136.5 95 119.5C95 102.5 100.667 88.3333 112 77C123.5 65.6667 137.833 60 155 60C176.833 60 193.5 68.3333 205 85L186 96C178.667 85.3333 168.167 80 154.5 80C143.167 80 133.667 83.75 126 91.25C118.5 98.75 114.75 108.25 114.75 119.75C114.75 131.25 118.5 140.75 126 148.25C133.667 155.75 143.333 159.5 155 159.5C164.333 159.5 172.083 157.083 178.25 152.25C184.417 147.25 188.333 140.5 190 132V130Z" fill="#C9A961"/>
</svg>
